<svg width="17" height="17" viewBox="0 0 17 17" fill="none" xmlns="http://www.w3.org/2000/svg">
<path d="M7.13874 1.59433C4.65472 2.07913 2.65302 4.07583 2.16321 6.55232C1.23858 11.2254 5.45441 14.709 8.63064 14.2167C9.66023 14.0568 10.165 12.8523 9.69272 11.9251C9.11545 10.7906 9.94012 9.46614 11.2146 9.46614H13.2063C14.101 9.46614 14.8257 8.72644 14.8282 7.8343C14.8157 3.8959 11.2321 0.797154 7.13874 1.59433ZM4.43231 9.46614C3.98999 9.46614 3.63263 9.10879 3.63263 8.66647C3.63263 8.22414 3.98999 7.86679 4.43231 7.86679C4.87464 7.86679 5.23199 8.22414 5.23199 8.66647C5.23199 9.10879 4.87464 9.46614 4.43231 9.46614ZM5.23199 6.26744C4.78967 6.26744 4.43231 5.91008 4.43231 5.46776C4.43231 5.02544 4.78967 4.66809 5.23199 4.66809C5.67432 4.66809 6.03168 5.02544 6.03168 5.46776C6.03168 5.91008 5.67432 6.26744 5.23199 6.26744ZM8.43072 4.66809C7.9884 4.66809 7.63104 4.31073 7.63104 3.86841C7.63104 3.42609 7.9884 3.06873 8.43072 3.06873C8.87305 3.06873 9.23041 3.42609 9.23041 3.86841C9.23041 4.31073 8.87305 4.66809 8.43072 4.66809ZM11.6295 6.26744C11.1871 6.26744 10.8298 5.91008 10.8298 5.46776C10.8298 5.02544 11.1871 4.66809 11.6295 4.66809C12.0718 4.66809 12.4291 5.02544 12.4291 5.46776C12.4291 5.91008 12.0718 6.26744 11.6295 6.26744Z" fill="#9251F7"/>
</svg>
