<svg width="12" height="10" viewBox="0 0 12 10" fill="none" xmlns="http://www.w3.org/2000/svg">
<path d="M9.70749 5.18631C11.0279 5.18631 11.9192 6.10543 11.9192 7.46708C11.9192 8.69257 10.8958 9.71382 9.50943 9.71382C7.99098 9.71382 6.86865 8.48833 6.86865 6.61605C6.86865 2.36087 9.97157 0.658804 11.9192 0.454554L11.9192 2.32683C10.5988 2.56512 9.11332 3.89274 9.0473 5.35652C9.11332 5.32248 9.3774 5.18631 9.70749 5.18631Z" fill="#79819A"/>
<path d="M2.97349 5.18631C4.29388 5.18631 5.18515 6.10543 5.18515 7.46708C5.18515 8.69257 4.16184 9.71382 2.77543 9.71382C1.25698 9.71382 0.134643 8.48833 0.134644 6.61605C0.134643 2.36087 3.23757 0.658804 5.18515 0.454554V2.32683C3.86475 2.56512 2.37931 3.89274 2.31329 5.35652C2.37931 5.32247 2.64339 5.18631 2.97349 5.18631Z" fill="#79819A"/>
</svg>
